<svg xmlns="http://www.w3.org/2000/svg" width="390" height="844" viewBox="0 0 390 844"><style>text{font-family:-apple-system,'SF Pro Text','PingFang SC','Segoe UI',Roboto,sans-serif}</style><defs><filter id="e1" x="-30%" y="-30%" width="160%" height="160%"><feDropShadow dx="0" dy="1" stdDeviation="2" flood-opacity="0.07"/></filter><filter id="e2" x="-30%" y="-30%" width="160%" height="160%"><feDropShadow dx="0" dy="4" stdDeviation="10" flood-opacity="0.10"/></filter><filter id="e3" x="-30%" y="-30%" width="160%" height="170%"><feDropShadow dx="0" dy="14" stdDeviation="28" flood-opacity="0.16"/></filter></defs><rect x="0" y="0" width="390" height="844" fill="#FFFFFF" pointer-events="none"/><g id="n_root" data-kind="frame"><rect x="0" y="0" width="390" height="844" rx="0" fill="none" stroke="#C8CDD6" stroke-width="1" stroke-dasharray="4 3"/><g id="n_title" data-kind="text"><text x="24" y="84" font-size="24" font-weight="normal" letter-spacing="0" fill="#1A1C1E">Create Account</text></g><g id="n_field_0" data-kind="rect"><rect x="24" y="140" width="342" height="52" rx="12" fill="#E8EAF6"/><text x="36" y="170.9" text-anchor=" start" font-size="14" font-weight="normal" fill="#111111">Full Name</text></g><g id="n_field_1" data-kind="rect"><rect x="24" y="208" width="342" height="52" rx="12" fill="#E8EAF6"/><text x="36" y="238.9" text-anchor=" start" font-size="14" font-weight="normal" fill="#111111">Email</text></g><g id="n_field_2" data-kind="rect"><rect x="24" y="276" width="342" height="52" rx="12" fill="#E8EAF6"/><text x="36" y="306.9" text-anchor=" start" font-size="14" font-weight="normal" fill="#111111">Password</text></g><g id="n_field_3" data-kind="rect"><rect x="24" y="344" width="342" height="52" rx="12" fill="#E8EAF6"/><text x="36" y="374.9" text-anchor=" start" font-size="14" font-weight="normal" fill="#111111">Confirm Password</text></g><g id="n_create_btn" data-kind="rect"><rect x="24" y="432" width="342" height="52" rx="12" fill="#4B6BFB"/><text x="36" y="462.9" text-anchor=" start" font-size="14" font-weight="normal" fill="#FFFFFF">Sign Up</text></g><g id="n_have_account" data-kind="text"><text x="95" y="514" font-size="12" font-weight="normal" letter-spacing="0" fill="#9098A1">Already have an account? Sign In</text></g></g></svg>